<svg width="679" height="505" viewBox="0 0 679 505" fill="none" xmlns="http://www.w3.org/2000/svg">
<path d="M596.068 244.056V315.572L591.482 310.986L586.897 315.572V249.353L596.068 244.056Z" fill="#FF304C"/>
<path d="M591.494 310.976L578.442 324.028L591.494 337.079L604.546 324.028L591.494 310.976Z" fill="#FF304C"/>
<path d="M613.559 158.714C606.13 163.414 339.306 317.726 339.306 317.726L261.921 273.037L538.031 115.218L339.306 0.50415L0.00390625 196.386L339.306 392.291L586.893 249.352L678.609 196.386L613.559 158.714ZM129.163 196.386L339.306 75.069L415.912 119.276L206.181 240.845L129.163 196.386Z" fill="#FF304C"/>
<path d="M201.454 349.713L164.424 371.106V403.092L129.044 382.662V307.753C150.873 320.387 176.14 335.039 201.454 349.713Z" fill="#2D005D"/>
<path d="M549.562 382.661L339.304 504.047L238.485 445.853V371.151C293.033 402.701 339.304 429.459 339.304 429.459L549.448 308.142L549.562 382.661Z" fill="#2D005D"/>
<path d="M201.462 349.715V424.922L164.432 446.04V371.108L201.462 349.715Z" fill="#FF304C"/>
</svg>
